<?xml version="1.0" encoding="UTF-8"?>
    <svg width="800" height="750" version="1.1" xmlns="http://www.w3.org/2000/svg">
    <style>
        .row { font: 14px Arial; fill: #64748b; }
        .score { font: bold 14px Arial; fill: #64748b; }
    </style>
    <text x="400" y="40" text-anchor="middle" font-size="20px" font-weight="bold" fill="#64748b">Channel Performance Overview</text><rect x="150" y="80" width="500" height="30" fill="#eee" rx="5"/><rect x="150" y="80" width="374.4" height="30" fill="#22c55e" rx="5"/>
        <text x="140" y="100" text-anchor="end" class="row">V2RAY_BASE64.txt</text>
        <text x="660" y="100" text-anchor="start" class="score">74.9% (S:100%)</text><rect x="150" y="130" width="500" height="30" fill="#eee" rx="5"/><rect x="150" y="130" width="375.09999999999997" height="30" fill="#22c55e" rx="5"/>
        <text x="140" y="150" text-anchor="end" class="row">sub.txt</text>
        <text x="660" y="150" text-anchor="start" class="score">75.0% (S:100%)</text><rect x="150" y="180" width="500" height="30" fill="#eee" rx="5"/><rect x="150" y="180" width="378.35" height="30" fill="#22c55e" rx="5"/>
        <text x="140" y="200" text-anchor="end" class="row">proxies.txt</text>
        <text x="660" y="200" text-anchor="start" class="score">75.7% (S:100%)</text><rect x="150" y="230" width="500" height="30" fill="#eee" rx="5"/><rect x="150" y="230" width="395.0" height="30" fill="#22c55e" rx="5"/>
        <text x="140" y="250" text-anchor="end" class="row">WolfVPN</text>
        <text x="660" y="250" text-anchor="start" class="score">79.0% (S:100%)</text><rect x="150" y="280" width="500" height="30" fill="#eee" rx="5"/><rect x="150" y="280" width="399.20000000000005" height="30" fill="#22c55e" rx="5"/>
        <text x="140" y="300" text-anchor="end" class="row">NebuVPN</text>
        <text x="660" y="300" text-anchor="start" class="score">79.8% (S:100%)</text><rect x="150" y="330" width="500" height="30" fill="#eee" rx="5"/><rect x="150" y="330" width="374.65000000000003" height="30" fill="#22c55e" rx="5"/>
        <text x="140" y="350" text-anchor="end" class="row">vless_lite.txt#vless_lite</text>
        <text x="660" y="350" text-anchor="start" class="score">74.9% (S:100%)</text><rect x="150" y="380" width="500" height="30" fill="#eee" rx="5"/><rect x="150" y="380" width="373.84999999999997" height="30" fill="#22c55e" rx="5"/>
        <text x="140" y="400" text-anchor="end" class="row">CF%20New</text>
        <text x="660" y="400" text-anchor="start" class="score">74.8% (S:100%)</text><rect x="150" y="430" width="500" height="30" fill="#eee" rx="5"/><rect x="150" y="430" width="359.95" height="30" fill="#22c55e" rx="5"/>
        <text x="140" y="450" text-anchor="end" class="row">b0128f702507821423d47ec5ddce5e9d</text>
        <text x="660" y="450" text-anchor="start" class="score">72.0% (S:100%)</text><rect x="150" y="480" width="500" height="30" fill="#eee" rx="5"/><rect x="150" y="480" width="373.95000000000005" height="30" fill="#22c55e" rx="5"/>
        <text x="140" y="500" text-anchor="end" class="row">214abfe9-791e-44ba-bd8e-0afe298119f6#ShadowProxy66(2)</text>
        <text x="660" y="500" text-anchor="start" class="score">74.8% (S:100%)</text><rect x="150" y="530" width="500" height="30" fill="#eee" rx="5"/><rect x="150" y="530" width="495.5" height="30" fill="#22c55e" rx="5"/>
        <text x="140" y="550" text-anchor="end" class="row">DirectVPN</text>
        <text x="660" y="550" text-anchor="start" class="score">99.1% (S:100%)</text><rect x="150" y="580" width="500" height="30" fill="#eee" rx="5"/><rect x="150" y="580" width="484.45" height="30" fill="#22c55e" rx="5"/>
        <text x="140" y="600" text-anchor="end" class="row">persianvpnhub</text>
        <text x="660" y="600" text-anchor="start" class="score">96.9% (S:100%)</text><rect x="150" y="630" width="500" height="30" fill="#eee" rx="5"/><rect x="150" y="630" width="376.0" height="30" fill="#22c55e" rx="5"/>
        <text x="140" y="650" text-anchor="end" class="row">Sub.txt</text>
        <text x="660" y="650" text-anchor="start" class="score">75.2% (S:100%)</text><rect x="150" y="680" width="500" height="30" fill="#eee" rx="5"/><rect x="150" y="680" width="375.6" height="30" fill="#22c55e" rx="5"/>
        <text x="140" y="700" text-anchor="end" class="row">xray_final.txt</text>
        <text x="660" y="700" text-anchor="start" class="score">75.1% (S:100%)</text></svg>